<?xml version="1.0" encoding="UTF-8" standalone="no"?>
<!-- Created with Inkscape (http://www.inkscape.org/) -->

<svg xmlns:dc="http://purl.org/dc/elements/1.1/" xmlns:cc="http://creativecommons.org/ns#" xmlns:rdf="http://www.w3.org/1999/02/22-rdf-syntax-ns#" xmlns:svg="http://www.w3.org/2000/svg" xmlns="http://www.w3.org/2000/svg" xmlns:sodipodi="http://sodipodi.sourceforge.net/DTD/sodipodi-0.dtd" xmlns:inkscape="http://www.inkscape.org/namespaces/inkscape" version="1.1" width="512" height="512" viewBox="0 0 512 512" id="svg2" xml:space="preserve" inkscape:version="0.48.2 r9819" sodipodi:docname="draugiem.svg"><sodipodi:namedview pagecolor="#ffffff" bordercolor="#666666" borderopacity="1" objecttolerance="10" gridtolerance="10" guidetolerance="10" inkscape:pageopacity="0" inkscape:pageshadow="2" inkscape:window-width="640" inkscape:window-height="480" id="namedview8" showgrid="false" inkscape:zoom="0.4609375" inkscape:cx="256" inkscape:cy="256" inkscape:window-x="0" inkscape:window-y="0" inkscape:window-maximized="0" inkscape:current-layer="svg2" /><metadata id="metadata9"><rdf:RDF><cc:Work rdf:about=""><dc:format>image/svg+xml</dc:format><dc:type rdf:resource="http://purl.org/dc/dcmitype/StillImage" /><dc:title /></cc:Work></rdf:RDF></metadata><defs id="defs7" />



<path style="fill:#FFFFFF;fill-opacity:1;fill-rule:evenodd;stroke:none" d="M 247.34375 87.59375 C 231.68029 87.59375 224.4375 101.84009 224.4375 119.28125 C 224.4375 136.72242 231.68029 150.84375 247.34375 150.84375 L 247.59375 150.84375 C 263.01514 150.72625 270.25 136.60492 270.25 119.28125 C 270.25 101.95758 263.01514 87.711249 247.59375 87.59375 L 247.34375 87.59375 z M 197.28125 103.875 C 196.21703 103.875 195.13564 103.85168 194.1875 104.09375 C 182.6726 105.75396 177.67246 117.39485 178.15625 131.40625 C 178.50875 144.57994 183.75098 155.72975 194.1875 158.34375 C 195.73021 158.69625 197.28445 158.9375 199.0625 158.9375 C 207.2577 158.9375 212.59565 154.54452 215.5625 147.78125 C 217.4577 143.1542 218.27941 137.45603 218.15625 131.40625 C 217.92125 126.29646 217.10379 121.53206 215.5625 117.375 C 212.36066 109.31252 206.30602 103.875 197.28125 103.875 z M 297.78125 103.875 C 288.6457 103.875 282.71565 109.31252 279.5 117.375 C 277.95836 121.53206 277.01136 126.29646 276.90625 131.40625 C 276.65887 137.45603 277.48695 143.1542 279.5 147.78125 C 282.46827 154.54452 287.80338 158.9375 296 158.9375 C 297.76284 158.9375 299.33195 158.69625 300.875 158.34375 C 311.31684 155.72975 316.405 144.57994 316.875 131.40625 C 317.3588 117.39485 312.38672 105.75396 300.875 104.09375 C 299.91838 103.85168 298.85396 103.875 297.78125 103.875 z M 247.59375 156.1875 C 230.38192 156.1875 220.54064 162.00528 215.5625 170.78125 C 207.60902 184.55624 211.17045 205.90926 215.5625 224.0625 C 216.98629 230.12077 218.41168 235.70228 219.59375 240.6875 C 224.46253 260.5066 229.19211 306.5574 230.96875 320.4375 C 232.62754 334.44607 237.62191 337.40234 247.59375 338.34375 C 257.43535 337.40234 262.43354 334.44607 264.09375 320.4375 C 265.75289 306.5574 270.6177 260.5066 275.375 240.6875 C 276.5514 235.70228 278.07586 230.12077 279.5 224.0625 C 283.89206 205.90926 287.45879 184.55624 279.5 170.78125 C 274.40402 162.00528 264.6757 156.1875 247.59375 156.1875 z M 199.28125 163.5625 C 197.50319 163.5625 195.84629 163.5775 194.1875 163.8125 C 154.3143 167.24934 170.57942 212.32635 177.34375 237.125 C 182.09397 254.33825 187.54194 294.46654 189.4375 306.6875 C 190.27238 312.6212 191.81629 316.28355 194.1875 318.53125 C 196.67869 320.9106 200.01561 321.74451 204.40625 322.21875 C 209.62787 321.74451 213.18315 320.56892 215.5625 317.125 C 216.98629 314.87836 217.92918 311.43063 218.40625 306.6875 C 218.75875 302.53186 219.35042 295.26014 220.0625 286.84375 L 220.0625 286.625 L 219.71875 283.65625 L 219.34375 280.6875 L 218.875 277.71875 L 218.5 274.875 L 218.15625 271.90625 L 217.6875 269.0625 L 217.3125 266.21875 L 216.84375 263.34375 L 216.375 260.625 L 216.03125 258 L 215.5625 255.40625 L 215.5625 255.0625 L 215.1875 252.90625 L 214.71875 250.53125 L 214.25 248.28125 L 213.875 246.15625 L 213.40625 244.125 L 212.9375 242.34375 L 212.34375 239.5 L 211.5 236.53125 L 210.8125 233.46875 L 209.96875 230.25 L 209.15625 226.9375 L 208.3125 223.5 L 207.59375 219.9375 L 206.78125 216.375 L 206.0625 212.6875 L 205.46875 209 L 205 205.34375 L 204.5 201.65625 L 204.15625 197.96875 L 204.03125 194.15625 L 204.03125 190.5 L 204.15625 186.9375 L 204.5 183.25 L 205.09375 179.6875 L 205.9375 176.125 L 207 172.6875 L 208.5625 169.375 L 210.3125 166.15625 L 211.28125 164.84375 C 207.84299 164.02126 203.7908 163.5625 199.28125 163.5625 z M 295.75 163.5625 C 291.12295 163.5625 287.21809 164.02126 283.78125 164.84375 L 284.75 166.15625 L 286.5 169.375 L 287.9375 172.6875 L 289.125 176.125 L 289.9375 179.6875 L 290.5625 183.25 L 290.90625 186.9375 L 291.03125 190.5 L 291.03125 194.28125 L 290.78125 197.96875 L 290.5625 201.65625 L 290.0625 205.34375 L 289.59375 209 L 288.90625 212.6875 L 288.15625 216.375 L 287.46875 219.9375 L 286.625 223.5 L 285.9375 226.9375 L 285.09375 230.25 L 284.25 233.46875 L 283.4375 236.53125 L 282.71875 239.5 L 282 242.34375 L 281.65625 244.125 L 281.15625 246.15625 L 280.6875 248.28125 L 280.34375 250.53125 L 279.875 252.90625 L 279.5 254.9375 L 279.5 255.40625 L 279.03125 258 L 278.5625 260.625 L 278.1875 263.34375 L 277.71875 266.21875 L 277.375 269.0625 L 276.90625 271.90625 L 276.53125 274.875 L 276.0625 277.71875 L 275.71875 280.6875 L 275.375 283.65625 L 275 286.625 L 275 286.75 C 275.7188 295.28248 276.30375 302.53186 276.65625 306.6875 C 277.00874 311.43063 277.95836 314.87836 279.5 317.125 C 281.7615 320.56892 285.44276 321.74451 290.65625 322.21875 C 295.06069 321.74451 298.37674 320.9106 300.875 318.53125 C 303.23737 316.28355 304.67121 312.6212 305.625 306.6875 C 307.5202 294.46654 312.97562 254.33825 317.71875 237.125 C 324.48733 212.32635 340.74821 167.24934 300.875 163.8125 C 299.21303 163.5775 297.54045 163.5625 295.75 163.5625 z M 367.5 178.25 C 359.92008 178.14353 352.01692 178.51307 343.84375 179.34375 C 417.53896 180.29896 460.46374 225.51275 411.6875 287.34375 C 389.27564 315.82274 351.42505 343.93485 300.875 362.09375 C 298.49565 362.92473 296.004 363.76984 293.625 364.59375 C 288.88151 366.13681 284.13944 367.54496 279.5 368.96875 C 268.58675 372.05452 257.91951 374.79414 247.59375 376.8125 C 236.55204 379.06728 225.88684 380.71746 215.5625 381.90625 C 208.2036 382.61125 201.06792 383.10125 194.1875 383.21875 C 147.19712 384.40369 111.82846 371.59866 100.3125 344.0625 C 86.43417 311.19181 114.56942 265.38127 170.8125 230.5 C 129.1669 247.34694 53.576805 286.73536 50.375 343.21875 L 50.375 350.34375 C 50.73306 356.0421 51.792132 361.84797 53.6875 367.90625 C 65.673517 405.99595 122.27388 423.81263 194.1875 417.40625 C 201.18542 416.80764 208.32251 415.97768 215.5625 414.90625 C 226.00575 413.36344 236.66812 411.2086 247.59375 408.71875 C 258.03701 406.22342 268.70425 403.2582 279.5 399.9375 C 281.87936 399.1039 284.26087 398.39752 286.625 397.5625 C 291.48847 396.01828 296.24654 394.37021 300.875 392.59375 C 363.29209 369.92961 409.57546 339.77233 436.625 305.125 C 452.05913 285.31262 460.01944 266.78751 461.5625 250.53125 L 461.5625 238.09375 C 457.82165 202.06045 420.55941 178.99528 367.5 178.25 z " id="path2998" /></svg>